<?xml version="1.0" encoding="UTF-8" standalone="no"?>
<svg xmlns:dc="http://purl.org/dc/elements/1.1/" xmlns:cc="http://creativecommons.org/ns#" xmlns:rdf="http://www.w3.org/1999/02/22-rdf-syntax-ns#" xmlns:svg="http://www.w3.org/2000/svg" xmlns="http://www.w3.org/2000/svg" viewBox="0 0 3960 3060" height="3060" width="3960" xml:space="preserve" id="svg2">
  <metadata id="metadata8"></metadata>
  <defs id="defs6"></defs>
  <g transform="matrix(0.625,0,0,0.625,45,45)" id="g10">
    <g transform="scale(1,-1)" id="g12"><text id="text14" style="font-variant:normal;font-weight:normal;font-size:54px;font-family:Helvetica;-inkscape-font-specification:Helvetica;writing-mode:lr-tb;fill:#000000;fill-opacity:1;fill-rule:nonzero;stroke:none" transform="matrix(1,0,0,-1,664,-2614.95)"><tspan id="tspan16" y="0" x="0 30.024 60.048 75.059998 105.084">57.60</tspan></text>
<g transform="scale(1,-1)" id="g18"><g transform="scale(1,-1)" id="g20"><text id="text22" style="font-variant:normal;font-weight:normal;font-size:54px;font-family:Helvetica;-inkscape-font-specification:Helvetica;writing-mode:lr-tb;fill:#000000;fill-opacity:1;fill-rule:nonzero;stroke:none" transform="matrix(1,0,0,-1,1614,-2597.95)"><tspan id="tspan24" y="0" x="0 30.024 60.048 75.059998 105.084">65.99</tspan></text>
<g transform="scale(1,-1)" id="g26"><g transform="scale(1,-1)" id="g28"><text id="text30" style="font-variant:normal;font-weight:normal;font-size:54px;font-family:Helvetica;-inkscape-font-specification:Helvetica;writing-mode:lr-tb;fill:#000000;fill-opacity:1;fill-rule:nonzero;stroke:none" transform="matrix(1,0,0,-1,2374,-2354.95)"><tspan id="tspan32" y="0" x="0 30.024 60.048 75.059998 105.084">34.31</tspan></text>
<g transform="scale(1,-1)" id="g34"><g transform="scale(1,-1)" id="g36"><text id="text38" style="font-variant:normal;font-weight:normal;font-size:54px;font-family:Helvetica;-inkscape-font-specification:Helvetica;writing-mode:lr-tb;fill:#000000;fill-opacity:1;fill-rule:nonzero;stroke:none" transform="matrix(1,0,0,-1,2889,-3041.95)"><tspan id="tspan40" y="0" x="0 30.024 60.048 75.059998 105.084">99.35</tspan></text>
<g transform="scale(1,-1)" id="g42"><path id="path44" style="fill:none;stroke:#0000ff;stroke-width:2;stroke-linecap:square;stroke-linejoin:miter;stroke-miterlimit:10;stroke-dasharray:none;stroke-opacity:1" d="m 3753,1829 -1177,0"></path><path id="path46" style="fill:none;stroke:#0000ff;stroke-width:2;stroke-linecap:square;stroke-linejoin:miter;stroke-miterlimit:10;stroke-dasharray:none;stroke-opacity:1" d="m 3753,1829 0,1600"></path><path id="path48" style="fill:none;stroke:#0000ff;stroke-width:2;stroke-linecap:square;stroke-linejoin:miter;stroke-miterlimit:10;stroke-dasharray:none;stroke-opacity:1" d="m 1232,1829 0,1600"></path><path id="path50" style="fill:none;stroke:#0000ff;stroke-width:2;stroke-linecap:square;stroke-linejoin:miter;stroke-miterlimit:10;stroke-dasharray:none;stroke-opacity:1" d="m 1232,3429 855,0"></path><path id="path52" style="fill:none;stroke:#0000ff;stroke-width:2;stroke-linecap:square;stroke-linejoin:miter;stroke-miterlimit:10;stroke-dasharray:none;stroke-opacity:1" d="m 3733,1850 0,1579"></path><path id="path54" style="fill:none;stroke:#0000ff;stroke-width:2;stroke-linecap:square;stroke-linejoin:miter;stroke-miterlimit:10;stroke-dasharray:none;stroke-opacity:1" d="m 1253,1850 0,1559"></path><path id="path56" style="fill:none;stroke:#0000ff;stroke-width:2;stroke-linecap:square;stroke-linejoin:miter;stroke-miterlimit:10;stroke-dasharray:none;stroke-opacity:1" d="m 1253,3409 813,0"></path><path id="path58" style="fill:none;stroke:#0000ff;stroke-width:2;stroke-linecap:square;stroke-linejoin:miter;stroke-miterlimit:10;stroke-dasharray:none;stroke-opacity:1" d="m 3733,1850 -813,0"></path><path id="path60" style="fill:none;stroke:#0000ff;stroke-width:2;stroke-linecap:square;stroke-linejoin:miter;stroke-miterlimit:10;stroke-dasharray:none;stroke-opacity:1" d="m 2899,1850 0,112"></path><path id="path62" style="fill:none;stroke:#0000ff;stroke-width:2;stroke-linecap:square;stroke-linejoin:miter;stroke-miterlimit:10;stroke-dasharray:none;stroke-opacity:1" d="m 2920,1850 0,112"></path><path id="path64" style="fill:none;stroke:#0000ff;stroke-width:2;stroke-linecap:square;stroke-linejoin:miter;stroke-miterlimit:10;stroke-dasharray:none;stroke-opacity:1" d="m 2066,1850 0,112"></path><path id="path66" style="fill:none;stroke:#0000ff;stroke-width:2;stroke-linecap:square;stroke-linejoin:miter;stroke-miterlimit:10;stroke-dasharray:none;stroke-opacity:1" d="m 2087,1850 0,112"></path><path id="path68" style="fill:none;stroke:#0000ff;stroke-width:2;stroke-linecap:square;stroke-linejoin:miter;stroke-miterlimit:10;stroke-dasharray:none;stroke-opacity:1" d="m 2920,2681 -344,0"></path><path id="path70" style="fill:none;stroke:#0000ff;stroke-width:2;stroke-linecap:square;stroke-linejoin:miter;stroke-miterlimit:10;stroke-dasharray:none;stroke-opacity:1" d="m 2899,2661 -323,0"></path><path id="path72" style="fill:none;stroke:#0000ff;stroke-width:2;stroke-linecap:square;stroke-linejoin:miter;stroke-miterlimit:10;stroke-dasharray:none;stroke-opacity:1" d="m 2087,2681 0,748"></path><path id="path74" style="fill:none;stroke:#0000ff;stroke-width:2;stroke-linecap:square;stroke-linejoin:miter;stroke-miterlimit:10;stroke-dasharray:none;stroke-opacity:1" d="m 2576,2681 0,-20"></path><path id="path76" style="fill:none;stroke:#0000ff;stroke-width:2;stroke-linecap:square;stroke-linejoin:miter;stroke-miterlimit:10;stroke-dasharray:none;stroke-opacity:1" d="m 2410,2681 0,-20"></path><path id="path78" style="fill:none;stroke:#0000ff;stroke-width:2;stroke-linecap:square;stroke-linejoin:miter;stroke-miterlimit:10;stroke-dasharray:none;stroke-opacity:1" d="m 2410,2661 -323,0"></path><path id="path80" style="fill:none;stroke:#0000ff;stroke-width:2;stroke-linecap:square;stroke-linejoin:miter;stroke-miterlimit:10;stroke-dasharray:none;stroke-opacity:1" d="m 2410,2681 -323,0"></path><path id="path82" style="fill:none;stroke:#0000ff;stroke-width:2;stroke-linecap:square;stroke-linejoin:miter;stroke-miterlimit:10;stroke-dasharray:none;stroke-opacity:1" d="m 2576,1850 0,-21"></path><path id="path84" style="fill:none;stroke:#0000ff;stroke-width:2;stroke-linecap:square;stroke-linejoin:miter;stroke-miterlimit:10;stroke-dasharray:none;stroke-opacity:1" d="m 2410,1850 0,-21"></path><path id="path86" style="fill:none;stroke:#0000ff;stroke-width:2;stroke-linecap:square;stroke-linejoin:miter;stroke-miterlimit:10;stroke-dasharray:none;stroke-opacity:1" d="m 2410,1850 -323,0"></path><path id="path88" style="fill:none;stroke:#0000ff;stroke-width:2;stroke-linecap:square;stroke-linejoin:miter;stroke-miterlimit:10;stroke-dasharray:none;stroke-opacity:1" d="m 2410,1829 -1178,0"></path><path id="path90" style="fill:none;stroke:#0000ff;stroke-width:2;stroke-linecap:square;stroke-linejoin:miter;stroke-miterlimit:10;stroke-dasharray:none;stroke-opacity:1" d="m 2920,1962 -21,0"></path><path id="path92" style="fill:none;stroke:#0000ff;stroke-width:2;stroke-linecap:square;stroke-linejoin:miter;stroke-miterlimit:10;stroke-dasharray:none;stroke-opacity:1" d="m 2920,2129 -21,0"></path><path id="path94" style="fill:none;stroke:#0000ff;stroke-width:2;stroke-linecap:square;stroke-linejoin:miter;stroke-miterlimit:10;stroke-dasharray:none;stroke-opacity:1" d="m 2066,2129 0,1280"></path><path id="path96" style="fill:none;stroke:#0000ff;stroke-width:2;stroke-linecap:square;stroke-linejoin:miter;stroke-miterlimit:10;stroke-dasharray:none;stroke-opacity:1" d="m 2087,2129 0,532"></path><path id="path98" style="fill:none;stroke:#0000ff;stroke-width:2;stroke-linecap:square;stroke-linejoin:miter;stroke-miterlimit:10;stroke-dasharray:none;stroke-opacity:1" d="m 2920,2129 0,552"></path><path id="path100" style="fill:none;stroke:#0000ff;stroke-width:2;stroke-linecap:square;stroke-linejoin:miter;stroke-miterlimit:10;stroke-dasharray:none;stroke-opacity:1" d="m 2899,2129 0,532"></path><path id="path102" style="fill:none;stroke:#0000ff;stroke-width:2;stroke-linecap:square;stroke-linejoin:miter;stroke-miterlimit:10;stroke-dasharray:none;stroke-opacity:1" d="m 2087,1962 -21,0"></path><path id="path104" style="fill:none;stroke:#0000ff;stroke-width:2;stroke-linecap:square;stroke-linejoin:miter;stroke-miterlimit:10;stroke-dasharray:none;stroke-opacity:1" d="m 2087,2129 -21,0"></path><path id="path106" style="fill:none;stroke:#0000ff;stroke-width:2;stroke-linecap:square;stroke-linejoin:miter;stroke-miterlimit:10;stroke-dasharray:none;stroke-opacity:1" d="m 1118,1829 0,1600"></path><path id="path108" style="fill:none;stroke:#0000ff;stroke-width:2;stroke-linecap:square;stroke-linejoin:miter;stroke-miterlimit:10;stroke-dasharray:none;stroke-opacity:1" d="m 1097,1850 0,1579"></path><path id="path110" style="fill:none;stroke:#0000ff;stroke-width:2;stroke-linecap:square;stroke-linejoin:miter;stroke-miterlimit:10;stroke-dasharray:none;stroke-opacity:1" d="m 1118,1829 -78,0"></path><path id="path112" style="fill:none;stroke:#0000ff;stroke-width:2;stroke-linecap:square;stroke-linejoin:miter;stroke-miterlimit:10;stroke-dasharray:none;stroke-opacity:1" d="m 368,1829 0,1600"></path><path id="path114" style="fill:none;stroke:#0000ff;stroke-width:2;stroke-linecap:square;stroke-linejoin:miter;stroke-miterlimit:10;stroke-dasharray:none;stroke-opacity:1" d="m 368,3429 750,0"></path><path id="path116" style="fill:none;stroke:#0000ff;stroke-width:2;stroke-linecap:square;stroke-linejoin:miter;stroke-miterlimit:10;stroke-dasharray:none;stroke-opacity:1" d="m 389,1850 0,1559"></path><path id="path118" style="fill:none;stroke:#0000ff;stroke-width:2;stroke-linecap:square;stroke-linejoin:miter;stroke-miterlimit:10;stroke-dasharray:none;stroke-opacity:1" d="m 1097,1850 -57,0"></path><path id="path120" style="fill:none;stroke:#0000ff;stroke-width:2;stroke-linecap:square;stroke-linejoin:miter;stroke-miterlimit:10;stroke-dasharray:none;stroke-opacity:1" d="m 389,3409 729,0"></path><path id="path122" style="fill:none;stroke:#0000ff;stroke-width:2;stroke-linecap:square;stroke-linejoin:miter;stroke-miterlimit:10;stroke-dasharray:none;stroke-opacity:1" d="m 1040,1829 0,21"></path><path id="path124" style="fill:none;stroke:#0000ff;stroke-width:2;stroke-linecap:square;stroke-linejoin:miter;stroke-miterlimit:10;stroke-dasharray:none;stroke-opacity:1" d="m 873,1829 0,21"></path><path id="path126" style="fill:none;stroke:#0000ff;stroke-width:2;stroke-linecap:square;stroke-linejoin:miter;stroke-miterlimit:10;stroke-dasharray:none;stroke-opacity:1" d="m 873,1850 -484,0"></path><path id="path128" style="fill:none;stroke:#0000ff;stroke-width:2;stroke-linecap:square;stroke-linejoin:miter;stroke-miterlimit:10;stroke-dasharray:none;stroke-opacity:1" d="m 873,1829 -505,0"></path><path id="path130" style="fill:none;stroke:#0000ff;stroke-width:2;stroke-linecap:square;stroke-linejoin:miter;stroke-miterlimit:10;stroke-dasharray:none;stroke-opacity:1" d="m 2066,1850 -813,0"></path><path id="path132" style="fill:none;stroke:#0000ff;stroke-width:2;stroke-linecap:square;stroke-linejoin:miter;stroke-miterlimit:10;stroke-dasharray:none;stroke-opacity:1" d="m 2899,1850 -323,0"></path><path id="path134" style="fill:none;stroke:#0000ff;stroke-width:2;stroke-linecap:square;stroke-linejoin:miter;stroke-miterlimit:10;stroke-dasharray:none;stroke-opacity:1" d="m 3733,3429 20,0"></path><path id="path136" style="fill:none;stroke:#0000ff;stroke-width:2;stroke-linecap:square;stroke-linejoin:miter;stroke-miterlimit:10;stroke-dasharray:none;stroke-opacity:1" d="m 3892,1829 0,866"></path><path id="path138" style="fill:none;stroke:#0000ff;stroke-width:2;stroke-linecap:square;stroke-linejoin:miter;stroke-miterlimit:10;stroke-dasharray:none;stroke-opacity:1" d="m 3899,1829 0,859"></path><path id="path140" style="fill:none;stroke:#0000ff;stroke-width:2;stroke-linecap:square;stroke-linejoin:miter;stroke-miterlimit:10;stroke-dasharray:none;stroke-opacity:1" d="m 3892,1829 217,0"></path><path id="path142" style="fill:none;stroke:#0000ff;stroke-width:2;stroke-linecap:square;stroke-linejoin:miter;stroke-miterlimit:10;stroke-dasharray:none;stroke-opacity:1" d="m 4109,1829 0,7"></path><path id="path144" style="fill:none;stroke:#0000ff;stroke-width:2;stroke-linecap:square;stroke-linejoin:miter;stroke-miterlimit:10;stroke-dasharray:none;stroke-opacity:1" d="m 4109,1836 -210,0"></path><path id="path146" style="fill:none;stroke:#0000ff;stroke-width:2;stroke-linecap:square;stroke-linejoin:miter;stroke-miterlimit:10;stroke-dasharray:none;stroke-opacity:1" d="m 4109,2044 -210,0"></path><path id="path148" style="fill:none;stroke:#0000ff;stroke-width:2;stroke-linecap:square;stroke-linejoin:miter;stroke-miterlimit:10;stroke-dasharray:none;stroke-opacity:1" d="m 4109,2051 -210,0"></path><path id="path150" style="fill:none;stroke:#0000ff;stroke-width:2;stroke-linecap:square;stroke-linejoin:miter;stroke-miterlimit:10;stroke-dasharray:none;stroke-opacity:1" d="m 4109,2259 -210,0"></path><path id="path152" style="fill:none;stroke:#0000ff;stroke-width:2;stroke-linecap:square;stroke-linejoin:miter;stroke-miterlimit:10;stroke-dasharray:none;stroke-opacity:1" d="m 4109,2266 -210,0"></path><path id="path154" style="fill:none;stroke:#0000ff;stroke-width:2;stroke-linecap:square;stroke-linejoin:miter;stroke-miterlimit:10;stroke-dasharray:none;stroke-opacity:1" d="m 4109,2474 -210,0"></path><path id="path156" style="fill:none;stroke:#0000ff;stroke-width:2;stroke-linecap:square;stroke-linejoin:miter;stroke-miterlimit:10;stroke-dasharray:none;stroke-opacity:1" d="m 4109,2480 -210,0"></path><path id="path158" style="fill:none;stroke:#0000ff;stroke-width:2;stroke-linecap:square;stroke-linejoin:miter;stroke-miterlimit:10;stroke-dasharray:none;stroke-opacity:1" d="m 4109,2051 0,-7"></path><path id="path160" style="fill:none;stroke:#0000ff;stroke-width:2;stroke-linecap:square;stroke-linejoin:miter;stroke-miterlimit:10;stroke-dasharray:none;stroke-opacity:1" d="m 4109,2259 0,7"></path><path id="path162" style="fill:none;stroke:#0000ff;stroke-width:2;stroke-linecap:square;stroke-linejoin:miter;stroke-miterlimit:10;stroke-dasharray:none;stroke-opacity:1" d="m 4109,2480 0,-6"></path><path id="path164" style="fill:none;stroke:#0000ff;stroke-width:2;stroke-linecap:square;stroke-linejoin:miter;stroke-miterlimit:10;stroke-dasharray:none;stroke-opacity:1" d="m 4109,2688 -210,0"></path><path id="path166" style="fill:none;stroke:#0000ff;stroke-width:2;stroke-linecap:square;stroke-linejoin:miter;stroke-miterlimit:10;stroke-dasharray:none;stroke-opacity:1" d="m 4109,2695 -217,0"></path><path id="path168" style="fill:none;stroke:#878787;stroke-width:2;stroke-linecap:square;stroke-linejoin:miter;stroke-miterlimit:10;stroke-dasharray:12, 8;stroke-dashoffset:0;stroke-opacity:1" d="m 243,3554 3866,0"></path><path id="path170" style="fill:none;stroke:#878787;stroke-width:2;stroke-linecap:square;stroke-linejoin:miter;stroke-miterlimit:10;stroke-dasharray:12, 8;stroke-dashoffset:0;stroke-opacity:1" d="m 243,1331 0,2223"></path><path id="path172" style="fill:none;stroke:#878787;stroke-width:2;stroke-linecap:square;stroke-linejoin:miter;stroke-miterlimit:10;stroke-dasharray:12, 8;stroke-dashoffset:0;stroke-opacity:1" d="m 4109,1331 -3866,0"></path><path id="path174" style="fill:none;stroke:#878787;stroke-width:2;stroke-linecap:square;stroke-linejoin:miter;stroke-miterlimit:10;stroke-dasharray:12, 8;stroke-dashoffset:0;stroke-opacity:1" d="m 4109,3554 0,-2223"></path><path id="path176" style="fill:none;stroke:#0000ff;stroke-width:2;stroke-linecap:square;stroke-linejoin:miter;stroke-miterlimit:10;stroke-dasharray:none;stroke-opacity:1" d="m 4109,2695 0,-7"></path><path id="path178" style="fill:none;stroke:#0000ff;stroke-width:2;stroke-linecap:square;stroke-linejoin:miter;stroke-miterlimit:10;stroke-dasharray:none;stroke-opacity:1" d="m 4110,1836 12,0"></path><path id="path180" style="fill:none;stroke:#ff0000;stroke-width:0.25;stroke-linecap:square;stroke-linejoin:miter;stroke-miterlimit:10;stroke-dasharray:none;stroke-opacity:1" d="m 4132,2026 0,8 193,0 0,-8 -193,0 z"></path><path id="path182" style="fill:none;stroke:#ff0000;stroke-width:0.25;stroke-linecap:square;stroke-linejoin:miter;stroke-miterlimit:10;stroke-dasharray:none;stroke-opacity:1" d="m 4132,1842 -8,0 0,5 -14,0 0,-11 22,0 0,6 z"></path><path id="path184" style="fill:none;stroke:#ff0000;stroke-width:0.25;stroke-linecap:square;stroke-linejoin:miter;stroke-miterlimit:10;stroke-dasharray:none;stroke-opacity:1" d="m 4132,2034 -8,0 0,-4 -14,0 0,10 22,0 0,-6 z"></path><path id="path186" style="fill:none;stroke:#ff0000;stroke-width:2;stroke-linecap:square;stroke-linejoin:miter;stroke-miterlimit:10;stroke-dasharray:none;stroke-opacity:1" d="m 4324,2026 c -4,-103 -89,-184 -192,-184"></path><path id="path188" style="fill:none;stroke:#ff0000;stroke-width:2;stroke-linecap:square;stroke-linejoin:miter;stroke-miterlimit:10;stroke-dasharray:none;stroke-opacity:1" d="m 875,1870 0,-4"></path><path id="path190" style="fill:none;stroke:#ff0000;stroke-width:2;stroke-linecap:square;stroke-linejoin:miter;stroke-miterlimit:10;stroke-dasharray:none;stroke-opacity:1" d="m 1036,1947 0,-13"></path><path id="path192" style="fill:none;stroke:#ff0000;stroke-width:2;stroke-linecap:square;stroke-linejoin:miter;stroke-miterlimit:10;stroke-dasharray:none;stroke-opacity:1" d="m 876,1873 c 21,-1 37,-18 37,-39"></path><path id="path194" style="fill:none;stroke:#ff0000;stroke-width:2;stroke-linecap:square;stroke-linejoin:miter;stroke-miterlimit:10;stroke-dasharray:none;stroke-opacity:1" d="m 914,1833 c 5,63 54,113 117,121"></path><path id="path196" style="fill:none;stroke:#ff0000;stroke-width:0.25;stroke-linecap:square;stroke-linejoin:miter;stroke-miterlimit:10;stroke-dasharray:none;stroke-opacity:1" d="m 1036,1844 0,-5 -3,0 0,-10 7,0 0,15 -4,0 z"></path><path id="path198" style="fill:none;stroke:#ff0000;stroke-width:0.5;stroke-linecap:square;stroke-linejoin:miter;stroke-miterlimit:10;stroke-dasharray:none;stroke-opacity:1" d="m 1031,1954 0,-110 5,0 0,110 -5,0 z"></path><path id="path200" style="fill:none;stroke:#ff0000;stroke-width:0.25;stroke-linecap:square;stroke-linejoin:miter;stroke-miterlimit:10;stroke-dasharray:none;stroke-opacity:1" d="m 875,1834 0,-1 1,0 0,-4 -3,0 0,5 2,0 z"></path><path id="path202" style="fill:none;stroke:#ff0000;stroke-width:0.5;stroke-linecap:square;stroke-linejoin:miter;stroke-miterlimit:10;stroke-dasharray:none;stroke-opacity:1" d="m 876,1873 0,-39 -1,0 0,39 1,0 z"></path><path id="path204" style="fill:none;stroke:#0000ff;stroke-width:2;stroke-linecap:square;stroke-linejoin:miter;stroke-miterlimit:10;stroke-dasharray:none;stroke-opacity:1" d="m 4110,2051 12,0"></path><path id="path206" style="fill:none;stroke:#ff0000;stroke-width:0.25;stroke-linecap:square;stroke-linejoin:miter;stroke-miterlimit:10;stroke-dasharray:none;stroke-opacity:1" d="m 4132,2241 0,8 193,0 0,-8 -193,0 z"></path><path id="path208" style="fill:none;stroke:#ff0000;stroke-width:0.25;stroke-linecap:square;stroke-linejoin:miter;stroke-miterlimit:10;stroke-dasharray:none;stroke-opacity:1" d="m 4132,2057 -8,0 0,4 -14,0 0,-10 22,0 0,6 z"></path><path id="path210" style="fill:none;stroke:#ff0000;stroke-width:0.25;stroke-linecap:square;stroke-linejoin:miter;stroke-miterlimit:10;stroke-dasharray:none;stroke-opacity:1" d="m 4132,2249 -8,0 0,-4 -14,0 0,10 22,0 0,-6 z"></path><path id="path212" style="fill:none;stroke:#ff0000;stroke-width:2;stroke-linecap:square;stroke-linejoin:miter;stroke-miterlimit:10;stroke-dasharray:none;stroke-opacity:1" d="m 4324,2241 c -4,-103 -89,-184 -192,-184"></path><path id="path214" style="fill:none;stroke:#0000ff;stroke-width:2;stroke-linecap:square;stroke-linejoin:miter;stroke-miterlimit:10;stroke-dasharray:none;stroke-opacity:1" d="m 4110,2266 12,0"></path><path id="path216" style="fill:none;stroke:#ff0000;stroke-width:0.25;stroke-linecap:square;stroke-linejoin:miter;stroke-miterlimit:10;stroke-dasharray:none;stroke-opacity:1" d="m 4132,2455 0,9 193,0 0,-9 -193,0 z"></path><path id="path218" style="fill:none;stroke:#ff0000;stroke-width:0.25;stroke-linecap:square;stroke-linejoin:miter;stroke-miterlimit:10;stroke-dasharray:none;stroke-opacity:1" d="m 4132,2272 -8,0 0,4 -14,0 0,-10 22,0 0,6 z"></path><path id="path220" style="fill:none;stroke:#ff0000;stroke-width:0.25;stroke-linecap:square;stroke-linejoin:miter;stroke-miterlimit:10;stroke-dasharray:none;stroke-opacity:1" d="m 4132,2464 -8,0 0,-4 -14,0 0,10 22,0 0,-6 z"></path><path id="path222" style="fill:none;stroke:#ff0000;stroke-width:2;stroke-linecap:square;stroke-linejoin:miter;stroke-miterlimit:10;stroke-dasharray:none;stroke-opacity:1" d="m 4324,2455 c -4,-102 -89,-183 -192,-183"></path><path id="path224" style="fill:none;stroke:#0000ff;stroke-width:2;stroke-linecap:square;stroke-linejoin:miter;stroke-miterlimit:10;stroke-dasharray:none;stroke-opacity:1" d="m 4110,2481 12,0"></path><path id="path226" style="fill:none;stroke:#ff0000;stroke-width:0.25;stroke-linecap:square;stroke-linejoin:miter;stroke-miterlimit:10;stroke-dasharray:none;stroke-opacity:1" d="m 4132,2670 0,8 193,0 0,-8 -193,0 z"></path><path id="path228" style="fill:none;stroke:#ff0000;stroke-width:0.25;stroke-linecap:square;stroke-linejoin:miter;stroke-miterlimit:10;stroke-dasharray:none;stroke-opacity:1" d="m 4132,2487 -8,0 0,4 -14,0 0,-10 22,0 0,6 z"></path><path id="path230" style="fill:none;stroke:#ff0000;stroke-width:0.25;stroke-linecap:square;stroke-linejoin:miter;stroke-miterlimit:10;stroke-dasharray:none;stroke-opacity:1" d="m 4132,2678 -8,0 0,-4 -14,0 0,10 22,0 0,-6 z"></path><path id="path232" style="fill:none;stroke:#ff0000;stroke-width:2;stroke-linecap:square;stroke-linejoin:miter;stroke-miterlimit:10;stroke-dasharray:none;stroke-opacity:1" d="m 4324,2670 c -4,-102 -89,-183 -192,-183"></path><path id="path234" style="fill:none;stroke:#ff0000;stroke-width:2;stroke-linecap:square;stroke-linejoin:miter;stroke-miterlimit:10;stroke-dasharray:none;stroke-opacity:1" d="m 2940,2127 -4,0"></path><path id="path236" style="fill:none;stroke:#ff0000;stroke-width:2;stroke-linecap:square;stroke-linejoin:miter;stroke-miterlimit:10;stroke-dasharray:none;stroke-opacity:1" d="m 3017,1966 -13,0"></path><path id="path238" style="fill:none;stroke:#ff0000;stroke-width:2;stroke-linecap:square;stroke-linejoin:miter;stroke-miterlimit:10;stroke-dasharray:none;stroke-opacity:1" d="m 2943,2125 c -1,-20 -18,-36 -39,-36"></path><path id="path240" style="fill:none;stroke:#ff0000;stroke-width:2;stroke-linecap:square;stroke-linejoin:miter;stroke-miterlimit:10;stroke-dasharray:none;stroke-opacity:1" d="m 2903,2088 c 63,-5 114,-54 121,-117"></path><path id="path242" style="fill:none;stroke:#ff0000;stroke-width:0.25;stroke-linecap:square;stroke-linejoin:miter;stroke-miterlimit:10;stroke-dasharray:none;stroke-opacity:1" d="m 2914,1966 -5,0 0,3 -10,0 0,-7 15,0 0,4 z"></path><path id="path244" style="fill:none;stroke:#ff0000;stroke-width:0.5;stroke-linecap:square;stroke-linejoin:miter;stroke-miterlimit:10;stroke-dasharray:none;stroke-opacity:1" d="m 3024,1971 -110,0 0,-5 110,0 0,5 z"></path><path id="path246" style="fill:none;stroke:#ff0000;stroke-width:0.25;stroke-linecap:square;stroke-linejoin:miter;stroke-miterlimit:10;stroke-dasharray:none;stroke-opacity:1" d="m 2904,2127 -2,0 0,-1 -3,0 0,3 5,0 0,-2 z"></path><path id="path248" style="fill:none;stroke:#ff0000;stroke-width:0.5;stroke-linecap:square;stroke-linejoin:miter;stroke-miterlimit:10;stroke-dasharray:none;stroke-opacity:1" d="m 2943,2125 -39,0 0,2 39,0 0,-2 z"></path><path id="path250" style="fill:none;stroke:#ff0000;stroke-width:2;stroke-linecap:square;stroke-linejoin:miter;stroke-miterlimit:10;stroke-dasharray:none;stroke-opacity:1" d="m 2045,2127 5,0"></path><path id="path252" style="fill:none;stroke:#ff0000;stroke-width:2;stroke-linecap:square;stroke-linejoin:miter;stroke-miterlimit:10;stroke-dasharray:none;stroke-opacity:1" d="m 1969,1966 13,0"></path><path id="path254" style="fill:none;stroke:#ff0000;stroke-width:2;stroke-linecap:square;stroke-linejoin:miter;stroke-miterlimit:10;stroke-dasharray:none;stroke-opacity:1" d="m 2081,2089 c -20,0 -37,16 -38,36"></path><path id="path256" style="fill:none;stroke:#ff0000;stroke-width:2;stroke-linecap:square;stroke-linejoin:miter;stroke-miterlimit:10;stroke-dasharray:none;stroke-opacity:1" d="m 1962,1971 c 7,63 58,112 121,117"></path><path id="path258" style="fill:none;stroke:#ff0000;stroke-width:0.25;stroke-linecap:square;stroke-linejoin:miter;stroke-miterlimit:10;stroke-dasharray:none;stroke-opacity:1" d="m 2072,1966 5,0 0,3 10,0 0,-7 -15,0 0,4 z"></path><path id="path260" style="fill:none;stroke:#ff0000;stroke-width:0.5;stroke-linecap:square;stroke-linejoin:miter;stroke-miterlimit:10;stroke-dasharray:none;stroke-opacity:1" d="m 1962,1971 110,0 0,-5 -110,0 0,5 z"></path><path id="path262" style="fill:none;stroke:#ff0000;stroke-width:0.25;stroke-linecap:square;stroke-linejoin:miter;stroke-miterlimit:10;stroke-dasharray:none;stroke-opacity:1" d="m 2081,2127 2,0 0,-1 4,0 0,3 -6,0 0,-2 z"></path><path id="path264" style="fill:none;stroke:#ff0000;stroke-width:0.5;stroke-linecap:square;stroke-linejoin:miter;stroke-miterlimit:10;stroke-dasharray:none;stroke-opacity:1" d="m 2043,2125 38,0 0,2 -38,0 0,-2 z"></path><path id="path266" style="fill:none;stroke:#ff0000;stroke-width:2;stroke-linecap:square;stroke-linejoin:miter;stroke-miterlimit:10;stroke-dasharray:none;stroke-opacity:1" d="m 2575,1870 0,-4"></path><path id="path268" style="fill:none;stroke:#ff0000;stroke-width:2;stroke-linecap:square;stroke-linejoin:miter;stroke-miterlimit:10;stroke-dasharray:none;stroke-opacity:1" d="m 2414,1947 0,-13"></path><path id="path270" style="fill:none;stroke:#ff0000;stroke-width:2;stroke-linecap:square;stroke-linejoin:miter;stroke-miterlimit:10;stroke-dasharray:none;stroke-opacity:1" d="m 2536,1834 c 0,21 17,38 37,39"></path><path id="path272" style="fill:none;stroke:#ff0000;stroke-width:2;stroke-linecap:square;stroke-linejoin:miter;stroke-miterlimit:10;stroke-dasharray:none;stroke-opacity:1" d="m 2419,1954 c 63,-8 112,-58 117,-121"></path><path id="path274" style="fill:none;stroke:#ff0000;stroke-width:0.25;stroke-linecap:square;stroke-linejoin:miter;stroke-miterlimit:10;stroke-dasharray:none;stroke-opacity:1" d="m 2414,1844 0,-5 2,0 0,-10 -6,0 0,15 4,0 z"></path><path id="path276" style="fill:none;stroke:#ff0000;stroke-width:0.5;stroke-linecap:square;stroke-linejoin:miter;stroke-miterlimit:10;stroke-dasharray:none;stroke-opacity:1" d="m 2419,1954 0,-110 -5,0 0,110 5,0 z"></path><path id="path278" style="fill:none;stroke:#ff0000;stroke-width:0.25;stroke-linecap:square;stroke-linejoin:miter;stroke-miterlimit:10;stroke-dasharray:none;stroke-opacity:1" d="m 2575,1834 0,-1 -1,0 0,-4 2,0 0,5 -1,0 z"></path><path id="path280" style="fill:none;stroke:#ff0000;stroke-width:0.5;stroke-linecap:square;stroke-linejoin:miter;stroke-miterlimit:10;stroke-dasharray:none;stroke-opacity:1" d="m 2573,1873 0,-39 2,0 0,39 -2,0 z"></path><path id="path282" style="fill:none;stroke:#0000ff;stroke-width:2;stroke-linecap:square;stroke-linejoin:miter;stroke-miterlimit:10;stroke-dasharray:none;stroke-opacity:1" d="m 2576,2681 0,-20"></path><path id="path284" style="fill:none;stroke:#0000ff;stroke-width:2;stroke-linecap:square;stroke-linejoin:miter;stroke-miterlimit:10;stroke-dasharray:none;stroke-opacity:1" d="m 2410,2681 0,-20"></path><path id="path286" style="fill:none;stroke:#ff0000;stroke-width:2;stroke-linecap:square;stroke-linejoin:miter;stroke-miterlimit:10;stroke-dasharray:none;stroke-opacity:1" d="m 2575,2702 0,-5"></path><path id="path288" style="fill:none;stroke:#ff0000;stroke-width:2;stroke-linecap:square;stroke-linejoin:miter;stroke-miterlimit:10;stroke-dasharray:none;stroke-opacity:1" d="m 2414,2778 0,-13"></path><path id="path290" style="fill:none;stroke:#ff0000;stroke-width:2;stroke-linecap:square;stroke-linejoin:miter;stroke-miterlimit:10;stroke-dasharray:none;stroke-opacity:1" d="m 2536,2666 c 0,20 17,37 37,38"></path><path id="path292" style="fill:none;stroke:#ff0000;stroke-width:2;stroke-linecap:square;stroke-linejoin:miter;stroke-miterlimit:10;stroke-dasharray:none;stroke-opacity:1" d="m 2419,2785 c 63,-7 112,-58 117,-121"></path><path id="path294" style="fill:none;stroke:#ff0000;stroke-width:0.25;stroke-linecap:square;stroke-linejoin:miter;stroke-miterlimit:10;stroke-dasharray:none;stroke-opacity:1" d="m 2414,2675 0,-5 2,0 0,-9 -6,0 0,14 4,0 z"></path><path id="path296" style="fill:none;stroke:#ff0000;stroke-width:0.5;stroke-linecap:square;stroke-linejoin:miter;stroke-miterlimit:10;stroke-dasharray:none;stroke-opacity:1" d="m 2419,2785 0,-110 -5,0 0,110 5,0 z"></path><path id="path298" style="fill:none;stroke:#ff0000;stroke-width:0.25;stroke-linecap:square;stroke-linejoin:miter;stroke-miterlimit:10;stroke-dasharray:none;stroke-opacity:1" d="m 2575,2666 0,-2 -1,0 0,-3 2,0 0,5 -1,0 z"></path><path id="path300" style="fill:none;stroke:#ff0000;stroke-width:0.5;stroke-linecap:square;stroke-linejoin:miter;stroke-miterlimit:10;stroke-dasharray:none;stroke-opacity:1" d="m 2573,2704 0,-38 2,0 0,38 -2,0 z"></path><path id="path302" style="fill:none;stroke:#ff0000;stroke-width:0.25;stroke-linecap:square;stroke-linejoin:miter;stroke-miterlimit:10;stroke-dasharray:none;stroke-opacity:1" d="m 4137,1789 0,9 215,0 0,-9 -215,0 z"></path><path id="path304" style="fill:none;stroke:#ff0000;stroke-width:0.25;stroke-linecap:square;stroke-linejoin:miter;stroke-miterlimit:10;stroke-dasharray:none;stroke-opacity:1" d="m 4137,1798 -9,0 0,-5 -16,0 0,12 25,0 0,-7 z"></path><path id="path306" style="fill:none;stroke:#ff0000;stroke-width:2;stroke-linecap:square;stroke-linejoin:miter;stroke-miterlimit:10;stroke-dasharray:none;stroke-opacity:1" d="m 4352,1789 c -8,-115 -100,-206 -215,-213"></path><path id="path308" style="fill:none;stroke:#ff0000;stroke-width:0.25;stroke-linecap:square;stroke-linejoin:miter;stroke-miterlimit:10;stroke-dasharray:none;stroke-opacity:1" d="m 4137,1364 0,-9 215,0 0,9 -215,0 z"></path><path id="path310" style="fill:none;stroke:#ff0000;stroke-width:0.25;stroke-linecap:square;stroke-linejoin:miter;stroke-miterlimit:10;stroke-dasharray:none;stroke-opacity:1" d="m 4137,1355 -9,0 0,4 -16,0 0,-11 25,0 0,7 z"></path><path id="path312" style="fill:none;stroke:#ff0000;stroke-width:2;stroke-linecap:square;stroke-linejoin:miter;stroke-miterlimit:10;stroke-dasharray:none;stroke-opacity:1" d="m 4137,1576 c 115,-6 207,-98 215,-212"></path><g transform="matrix(1,-9e-4,-9e-4,-1,3124.0416,1936.25)" id="g314"><text id="text316" style="font-variant:normal;font-weight:normal;font-size:50px;font-family:Helvetica;-inkscape-font-specification:Helvetica;writing-mode:lr-tb;fill:#000000;fill-opacity:1;fill-rule:nonzero;stroke:none" transform="scale(1,-1)"><tspan id="tspan318" y="0" x="0 36.099998 63.900002 91.699997 116.7 133.35001 161.14999 175.05 202.85001">Concrete </tspan></text>
</g><g transform="matrix(1,-9e-4,-9e-4,-1,3124.0416,2002.25)" id="g320"><text id="text322" style="font-variant:normal;font-weight:normal;font-size:50px;font-family:Helvetica;-inkscape-font-specification:Helvetica;writing-mode:lr-tb;fill:#000000;fill-opacity:1;fill-rule:nonzero;stroke:none" transform="scale(1,-1)"><tspan id="tspan324" y="0" x="0 36.099998 63.900002 77.800003 105.6 116.7 144.5 155.60001 183.39999 211.2 225.10001 272.29999 300.10001 311.20001">Retaining Wall</tspan></text>
</g><g transform="matrix(9e-4,1,1,-9e-4,3646.75,2363.0416)" id="g326"><text id="text328" style="font-variant:normal;font-weight:normal;font-size:50px;font-family:Helvetica;-inkscape-font-specification:Helvetica;writing-mode:lr-tb;fill:#000000;fill-opacity:1;fill-rule:nonzero;stroke:none" transform="scale(1,-1)"><tspan id="tspan330" y="0" x="0 36.099998 63.900002 91.699997 116.7 133.35001 161.14999 175.05 202.85001">Concrete </tspan></text>
</g><g transform="matrix(9e-4,1,1,-9e-4,3580.75,2363.0416)" id="g332"><text id="text334" style="font-variant:normal;font-weight:normal;font-size:50px;font-family:Helvetica;-inkscape-font-specification:Helvetica;writing-mode:lr-tb;fill:#000000;fill-opacity:1;fill-rule:nonzero;stroke:none" transform="scale(1,-1)"><tspan id="tspan336" y="0" x="0 36.099998 63.900002 77.800003 105.6 116.7 144.5 155.60001 183.39999 211.2 225.10001 272.29999 300.10001 311.20001">Retaining Wall</tspan></text>
</g><g transform="matrix(1,-9e-4,-9e-4,-1,1489.0416,2574.25)" id="g338"><text id="text340" style="font-variant:normal;font-weight:normal;font-size:50px;font-family:Helvetica;-inkscape-font-specification:Helvetica;writing-mode:lr-tb;fill:#000000;fill-opacity:1;fill-rule:nonzero;stroke:none" transform="scale(1,-1)"><tspan id="tspan342" y="0" x="0 38.900002 66.699997 100.05 133.39999 166.75 180.64999 216.75 255.64999 291.75 325.10001">GLASS HOUSE</tspan></text>
</g><g transform="matrix(1,-9e-4,-9e-4,-1,562.04162,2570.25)" id="g344"><text id="text346" style="font-variant:normal;font-weight:normal;font-size:50px;font-family:Helvetica;-inkscape-font-specification:Helvetica;writing-mode:lr-tb;fill:#000000;fill-opacity:1;fill-rule:nonzero;stroke:none" transform="scale(1,-1)"><tspan id="tspan348" y="0" x="0 33.349998 69.449997 102.8 138.89999 172.25 186.14999 222.25 261.14999 297.25 330.60001">SHADE HOUSE</tspan></text>
</g><g transform="matrix(1,-9e-4,-9e-4,-1,2223.0416,2288.25)" id="g350"><text id="text352" style="font-variant:normal;font-weight:normal;font-size:50px;font-family:Helvetica;-inkscape-font-specification:Helvetica;writing-mode:lr-tb;fill:#000000;fill-opacity:1;fill-rule:nonzero;stroke:none" transform="scale(1,-1)"><tspan id="tspan354" y="0" x="0 36.099998 75 111.1 141.64999 155.55 191.64999 227.75 255.55 286.10001 322.20001 358.29999 391.64999 405.54999 438.89999 472.25 505.60001 541.70001">HORTICULTURE SPACE</tspan></text>
</g><g transform="matrix(1,-9e-4,-9e-4,-1,2706.0416,3036.25)" id="g356"><text id="text358" style="font-variant:normal;font-weight:normal;font-size:50px;font-family:Helvetica;-inkscape-font-specification:Helvetica;writing-mode:lr-tb;fill:#000000;fill-opacity:1;fill-rule:nonzero;stroke:none" transform="scale(1,-1)"><tspan id="tspan360" y="0" x="0 33.349998 66.699997 97.25 130.60001 166.7 202.8 236.14999 263.95001 277.85001 311.20001 339 372.35001 408.45001">EXTERNAL PLANT</tspan></text>
</g><g transform="matrix(1,-9e-4,-9e-4,-1,1740.0416,1387.25)" id="g362"><text id="text364" style="font-variant:normal;font-weight:normal;font-size:50px;font-family:Helvetica;-inkscape-font-specification:Helvetica;writing-mode:lr-tb;fill:#000000;fill-opacity:1;fill-rule:nonzero;stroke:none" transform="scale(1,-1)"><tspan id="tspan366" y="0" x="0 36.099998 63.900002 100 113.9 161.10001 188.89999 216.7 230.60001 258.39999 275.04999 302.85001 330.64999 344.54999 375.10001 402.89999 430.70001 455.70001 466.79999 494.60001">New Webforge Fencing</tspan></text>
</g><path id="path368" style="fill:#ffffff;fill-opacity:1;fill-rule:nonzero;stroke:none" d="m 4865,943 464,0 0,108 -464,0 0,-108"></path><g transform="scale(1,-1)" id="g370"><text id="text372" style="font-variant:normal;font-weight:normal;font-size:80px;font-family:Helvetica;-inkscape-font-specification:Helvetica;writing-mode:lr-tb;fill:#000000;fill-opacity:1;fill-rule:nonzero;stroke:none" transform="matrix(1,0,0,-1,4865,-1017)"><tspan id="tspan374" y="0" x="0 62.240002 80 124.48 164.48 204.48 226.72 284.48001 328.95999 373.44 413.44">Glass House</tspan></text>
<g transform="scale(1,-1)" id="g376"><path id="path378" style="fill:#ffffff;fill-opacity:1;fill-rule:nonzero;stroke:none" d="m 347,3708 488,0 0,67 -488,0 0,-67"></path><g transform="scale(1,-1)" id="g380"><text id="text382" style="font-variant:normal;font-weight:normal;font-size:50px;font-family:Helvetica;-inkscape-font-specification:Helvetica;writing-mode:lr-tb;fill:#000000;fill-opacity:1;fill-rule:nonzero;stroke:none" transform="matrix(1,0,0,-1,347,-3754.25)"><tspan id="tspan384" y="0" x="0 27.799999 97.300003 125.1 194.60001 222.39999 291.89999 319.70001 389.20001 417 486.5">0 1 2 3 4 5</tspan></text>
<g transform="scale(1,-1)" id="g386"><path id="path388" style="fill:#000000;fill-opacity:1;fill-rule:nonzero;stroke:#a0a0a0;stroke-width:3;stroke-linecap:square;stroke-linejoin:miter;stroke-miterlimit:10;stroke-dasharray:none;stroke-opacity:1" d="m 370,3704 110,0 0,-57 -110,0 0,57 z"></path><path id="path390" style="fill:#ffffff;fill-opacity:1;fill-rule:nonzero;stroke:#000000;stroke-width:0.25;stroke-linecap:square;stroke-linejoin:miter;stroke-miterlimit:10;stroke-dasharray:none;stroke-opacity:1" d="m 479,3704 110,0 0,-57 -110,0 0,57 z"></path><path id="path392" style="fill:#000000;fill-opacity:1;fill-rule:nonzero;stroke:#a0a0a0;stroke-width:3;stroke-linecap:square;stroke-linejoin:miter;stroke-miterlimit:10;stroke-dasharray:none;stroke-opacity:1" d="m 587,3704 110,0 0,-57 -110,0 0,57 z"></path><path id="path394" style="fill:#ffffff;fill-opacity:1;fill-rule:nonzero;stroke:#000000;stroke-width:0.25;stroke-linecap:square;stroke-linejoin:miter;stroke-miterlimit:10;stroke-dasharray:none;stroke-opacity:1" d="m 696,3704 110,0 0,-57 -110,0 0,57 z"></path><path id="path396" style="fill:#000000;fill-opacity:1;fill-rule:nonzero;stroke:#a0a0a0;stroke-width:3;stroke-linecap:square;stroke-linejoin:miter;stroke-miterlimit:10;stroke-dasharray:none;stroke-opacity:1" d="m 804,3703 110,0 0,-57 -110,0 0,57 z"></path><path id="path398" style="fill:none;stroke:#ff0000;stroke-width:0.25;stroke-linecap:square;stroke-linejoin:miter;stroke-miterlimit:10;stroke-dasharray:none;stroke-opacity:1" d="m 368,1829 3385,0 0,1600 -3385,0 0,-1600 z"></path><path id="path400" style="fill:none;stroke:#000000;stroke-width:2;stroke-linecap:square;stroke-linejoin:miter;stroke-miterlimit:10;stroke-dasharray:none;stroke-opacity:1" d="m 88,839 -88,265 91,-94 86,89 -89,-260 3,171"></path><g transform="matrix(1,7e-4,7e-4,-1,59.947552,796.925)" id="g402"><text id="text404" style="font-variant:normal;font-weight:normal;font-size:81px;font-family:Helvetica;-inkscape-font-specification:Helvetica;writing-mode:lr-tb;fill:#000000;fill-opacity:1;fill-rule:nonzero;stroke:none" transform="scale(1,-1)"><tspan id="tspan406" y="0" x="0">N</tspan></text>
</g><path id="path408" style="fill:#000000;fill-opacity:1;fill-rule:nonzero;stroke:#000000;stroke-width:2;stroke-linecap:square;stroke-linejoin:miter;stroke-miterlimit:10;stroke-dasharray:none;stroke-opacity:1" d="m 177,1095 -86,-90 -3,-171 89,261 z"></path></g></g></g></g></g></g></g></g></g></g></g></g>
  </g>
</svg>
